<?xml version="1.0" encoding="utf-8"?>
<!-- Generator: Adobe Illustrator 27.5.0, SVG Export Plug-In . SVG Version: 6.00 Build 0)  -->
<svg version="1.1" id="Capa_1" xmlns="http://www.w3.org/2000/svg" xmlns:xlink="http://www.w3.org/1999/xlink" x="0px" y="0px"
	 viewBox="0 0 2235 2015" style="enable-background:new 0 0 2235 2015;" xml:space="preserve">
<g>
	<path style="fill:#7979B8;" d="M2029.824,1098.376c5.359-5.508,9.49-12.337,11.439-19.872c5.893-22.754-8.192-41.577-24.934-56.067
		c15.529-14.138,24.483-34.788,21.576-56.739c-2.833-21.389-16.109-38.629-33.998-48.404c9.089-14.775,12.463-32.792,7.317-50.22
		c-5.39-18.256-19.221-32.6-36.228-39.886c15.316-32.333,5.067-74.687-22.666-97.313c13.399-19.826,11.616-48.714-2.553-68.165
		c12.209-9.887,20.394-24.911,20.845-40.72c0.467-16.358-7.232-31.871-19.305-42.38c8.392-11.032,12.481-25.26,11.453-40.045
		c-1.003-14.411-6.488-28.734-16.029-39.114c9.844-10.144,15.97-23.79,15.498-38.37c-0.503-15.488-8.004-29.901-19.482-39.745
		c12.363-14.775,18.507-34.514,15.632-54.025c-2.868-19.464-14.986-36.789-31.458-47.195c13.382-15.498,23.339-34.414,17.366-54.997
		c-3.274-11.291-11.789-21.619-22.245-27.669c6.008-18.495,1.88-40.497-13.941-53.252c-20.911-16.861-53.419-9.949-69.017,10.347
		c-16.358-7.132-36.112-6.311-51.177,4.102c-11.868,8.204-18.964,20.473-21.296,33.719c-13.61-2.881-28.203-0.88-40.109,7.006
		c-13.831,9.159-22.631,24.621-24.273,40.843c-17.943-0.328-35.635,7.211-46.987,22.469c-6.347,8.527-9.739,18.515-10.462,28.695
		c-7.314,0.292-14.634,2.027-21.12,5.239c-30.247,14.97-28.608,50.32-20.165,79.403c-17.381,3.286-33.249,13.582-41.946,29.788
		c-8.315,15.496-8.841,33.891-2.845,49.935c-21.178,8.599-35.881,30.72-39.032,53.878c-7.248-1.65-14.775-1.937-22.092-0.813
		c-2.932-10.901-10.249-20.519-22.107-25.098c-17.751-6.855-34.224,1.642-43.268,15.447c-13.441-8.271-29.762-12.119-45.627-11.101
		c-18.862,1.214-36.21,8.207-49.037,20.488c-12.374-14.772-30.586-24.396-50.507-24.659c-18.231-0.241-35.078,7.537-47.501,19.949
		c-10.521-18.692-25.842-34.709-48.509-33.546c-13.145,0.675-25.103,7.414-32.792,16.94c-14.618-9.941-32.775-14.59-50.63-11.868
		c-17.227,2.627-32.734,12.209-43.593,25.581c-11.768-11.701-28.495-18.497-45.22-16.527c-16.088,1.899-30.122,11.225-39.026,24.131
		c-12.538-10.341-28.88-15.86-45.766-13.625c-17.73,2.342-32.6,12.719-41.965,26.938c-12.858-11.175-29.616-17.566-47.444-15.745
		c-10.401,1.062-20.347,4.798-29.016,10.465c-5.575-7.827-13.7-13.751-23.284-15.732c-7.633-1.58-15.029-0.326-21.563,2.799
		c-2.186-14.22-8.515-27.399-20.532-37.364c-13.772-11.422-33.346-16.555-50.864-13.523c2.145-27.928-2.663-56.882-29.347-70.084
		c-7.922-3.92-16.929-5.809-25.812-5.785c5.375-26.014,2.686-52.56-20.616-69.815c-13.066-9.677-30.235-13.464-45.404-10.46
		c-2.825-10.793-8.959-20.694-18.436-27.887c-12.551-9.523-28.377-12.071-43.016-8.718c-4.641-16.353-16.802-30.494-33.713-35.676
		c-19.041-5.836-38.616,0.908-51.677,14.401c-18.448-12.481-43.939-14.395-62.891-0.811c-18.869,13.528-25.627,37.131-20.514,58.309
		c-18.915,5.306-35.33,19.37-42.659,37.836c-7.786,19.611-4.292,42.872,7.779,60.017c-26.533,31.699-18.857,85.647,16.078,108.132
		c-8.379,33.885,10.421,70.495,41.69,84.993c-6.853,20.706-1.668,43.775,10.931,61.6c-7.86,3.746-14.97,9.177-20.647,16.291
		c-14.239,17.838-16.273,42.221-7.756,62.529c-38.95,17.897-60.618,66.998-48.678,107.716c-12.017,3.74-23.208,11.819-30.001,21.64
		c-16.35,23.646-6.771,51.195,7.509,74.151c-20.296,7.607-37.139,24.485-42.716,45.846c-5.806,22.24,0.88,46.061,15.76,62.888
		c-14.431,15.001-21.186,37.221-16.34,57.812c3.992,16.97,15.889,30.896,30.925,39.039c-10.85,15.299-15.645,34.786-11.886,53.637
		c3.879,19.47,16.355,34.937,32.644,44.43c-15.381,19.952-20.745,47.564-10.996,71.452c9.236,22.635,29.791,38.231,52.862,43.147
		c-6.519,18.467-4.7,40.043,6.786,56.144c10.685,14.98,27.841,23.608,45.599,25.001c-4.928,20.16-1.17,42.369,12.122,59.166
		c13.967,17.653,36.707,26.227,58.722,24.739c-1.904,18.584,3.81,37.708,18.598,51.079c13.736,12.422,32.043,17.323,49.586,15.188
		c-0.488,16.686,5.565,33.408,19.018,44.835c14.811,12.576,35.656,16.25,54.081,11.33c2.73,16.691,12.03,32.115,27.549,41.238
		c17.428,10.247,37.941,9.724,55.125,1.555c5.89,15.229,17.717,27.805,34.429,33.696c15.091,5.316,31.674,3.063,45.471-4.387
		c7.637,19.359,23.502,35.404,43.542,42.398c20.711,7.224,42.888,3.155,60.669-8.169c9.815,19.575,28.134,34.511,50.766,37.805
		c21.999,3.202,42.872-4.813,57.849-19.508c23.442,28.087,70.98,33.988,100.671,12.284c13.905,16.773,34.763,27.44,57.416,25.557
		c20.688-1.719,39.388-12.796,51.251-29.16c15.806,12.72,36.859,18.754,57.363,17.297c20.255-1.436,38.778-8.964,52.57-22.109
		c13.869,16.732,36.771,26.43,58.368,25.322c30.091-1.545,54.899-20.345,72.46-43.758c22.356,13.592,50.941,15.209,75.837,6.363
		c24.673-8.769,44.645-25.804,54.443-48.832c51.074,20.068,115.461-13.458,131.09-65.595c24.891,6.209,52.152,0.437,71.888-17.019
		c17.599-15.568,26.597-40.002,25.096-63.44c20.639-0.467,40.938-10.462,53.373-27.323c12.296-16.671,14.746-37.452,9.492-56.421
		c31.12-7.825,55.407-42.149,50.464-73.913c33.662-9.408,57.444-48.901,51.087-83.218c19.349-3.125,37.102-13.905,48.229-31.04
		c12.899-19.87,13.148-44.381,4.128-65.239c20.083-14.949,24.367-46.418,12.997-68.871c17.889-9.377,31.371-27.012,33.842-47.662
		C2046.392,1127.946,2040.481,1111.175,2029.824,1098.376z"/>
	<path style="fill:#6A6AAE;" d="M2041.264,1078.504c5.893-22.754-8.192-41.577-24.934-56.067
		c15.529-14.138,24.483-34.788,21.576-56.737c-0.478-3.592-1.347-7.016-2.384-10.359c-13.695,6.177-28.685,8.325-43.016,4.317
		c0.116,0.834,0.226,1.621,0.349,2.514c1.245,9.08,2.44,18.164,3.454,27.272c3.766,33.806,7.671,72.07-3.371,104.95
		c-4.359,12.984-11.902,25.496-24.888,31.222c-11.545,5.093-23.944,3.704-35.589-0.149c0.759,9.49,0.454,19.101-0.4,28.503
		c-2.709,29.798-10.29,62.18-29.216,86.096c-7.971,10.07-18.813,18.477-31.694,20.857c-9.182,1.696-18.187,0.454-26.702-2.545
		c1.655,11.717,2.117,23.662,1.883,35.386c-0.649,32.672-5.826,70.844-26.902,97.176c-9.005,11.252-21.543,18.811-36.105,19.631
		c-11.008,0.616-21.673-2.683-31.528-7.684c1.775,11.655,1.093,23.649-1.729,35.422c-14.685,61.27-94.088,131.462-154.464,89.793
		c-6.778,25.183-21.732,47.816-40.51,65.816c-30.678,29.411-70.107,47.175-112.893,43.757c-20.758-1.658-42.592-8.666-56.698-22.402
		c-2.92,6.214-6.981,12.043-12.035,17.235c-15.568,16.004-37.256,25.717-58.417,31.797c-24.616,7.071-50.992,9.688-76.501,7.296
		c-42.367-3.966-85.065-23.685-100.807-63.327c-8.705,12.191-20.232,22.038-34.552,27.815
		c-35.684,14.398-77.306,1.765-108.808-17.086c-27.744-16.609-54.677-41.644-66.911-72.461
		c-21.206,19.955-48.145,34.727-76.878,39.365c-24.968,4.038-52.27,0.949-73.561-13.572c-17.281-11.781-32.382-27.194-45.325-43.537
		c-14.97-18.903-33.413-47.934-31.894-73.371c-14.734,6.747-30.922,9.521-47.898,6.511c-50.174-8.9-84.978-59.145-101.892-103.488
		c-15.768-41.346-20.018-91.992,2.65-131.005c-17.861,0.523-35.499-3.756-51.451-12.784
		c-67.663-38.296-102.967-158.326-33.526-209.153c-11.56-8.599-20.481-20.86-26.984-33.518
		c-17.561-34.188-23.513-76.339-16.24-114.065c4.656-24.162,17.843-47.436,39.506-56.013c-6.781-5.549-12.845-11.996-18.156-19.005
		c-31.284-41.284-40.615-113.763,3.297-147.745c-30.375-14.259-55.61-41.857-72.84-69.356
		c-18.856-30.099-32.518-70.331-16.586-104.16c-41.33-40.44,7.073-113.562,59.058-118.56c-4.251-8.474-5.926-18.038-4.266-28.064
		c3.115-18.805,15.547-34.868,30.945-46.872c-5.208,2.732-9.988,6.316-14.116,10.58c-18.448-12.481-43.939-14.395-62.891-0.808
		c-18.869,13.528-25.627,37.13-20.514,58.306c-18.915,5.306-35.33,19.37-42.659,37.836c-7.786,19.611-4.292,42.872,7.779,60.017
		c-26.533,31.699-18.857,85.647,16.078,108.129c-8.379,33.888,10.421,70.498,41.69,84.996c-6.853,20.709-1.668,43.775,10.931,61.6
		c-7.86,3.746-14.97,9.177-20.647,16.291c-14.239,17.838-16.273,42.221-7.756,62.529c-38.95,17.897-60.618,66.998-48.678,107.718
		c-12.017,3.738-23.208,11.817-30.001,21.638c-16.35,23.646-6.771,51.195,7.509,74.151c-20.296,7.607-37.139,24.485-42.716,45.846
		c-5.806,22.24,0.88,46.061,15.76,62.888c-14.431,15.001-21.186,37.221-16.34,57.812c3.992,16.973,15.889,30.896,30.925,39.039
		c-10.85,15.299-15.645,34.786-11.886,53.64c3.879,19.467,16.355,34.937,32.644,44.43c-15.381,19.952-20.745,47.559-10.996,71.452
		c9.236,22.633,29.791,38.229,52.862,43.144c-6.519,18.467-4.7,40.043,6.786,56.144c10.685,14.98,27.841,23.608,45.599,25.001
		c-4.928,20.16-1.17,42.369,12.122,59.166c13.967,17.653,36.707,26.227,58.722,24.734c-1.904,18.59,3.81,37.714,18.598,51.085
		c13.736,12.422,32.043,17.323,49.586,15.188c-0.488,16.681,5.565,33.408,19.018,44.835c14.811,12.576,35.656,16.255,54.081,11.33
		c2.73,16.691,12.03,32.12,27.549,41.238c17.428,10.247,37.941,9.724,55.125,1.555c5.89,15.229,17.717,27.805,34.429,33.696
		c15.091,5.316,31.674,3.063,45.471-4.387c7.637,19.359,23.502,35.404,43.542,42.398c20.711,7.224,42.888,3.155,60.669-8.169
		c9.815,19.575,28.134,34.511,50.766,37.805c21.999,3.202,42.872-4.813,57.849-19.508c23.442,28.087,70.98,33.988,100.671,12.284
		c13.905,16.773,34.763,27.44,57.416,25.557c20.688-1.719,39.388-12.796,51.251-29.16c15.806,12.72,36.859,18.754,57.363,17.297
		c20.255-1.436,38.778-8.964,52.57-22.109c13.869,16.732,36.771,26.43,58.368,25.322c30.091-1.545,54.899-20.345,72.46-43.758
		c22.356,13.592,50.941,15.209,75.837,6.363c24.673-8.769,44.645-25.799,54.443-48.832c51.074,20.068,115.461-13.458,131.09-65.595
		c24.891,6.209,52.152,0.437,71.888-17.019c17.599-15.568,26.597-40.002,25.096-63.44c20.639-0.467,40.938-10.462,53.373-27.323
		c12.296-16.671,14.746-37.452,9.492-56.421c31.12-7.825,55.407-42.149,50.464-73.913c33.662-9.408,57.444-48.901,51.087-83.218
		c19.349-3.125,37.102-13.905,48.229-31.037c12.899-19.872,13.148-44.384,4.128-65.241c20.083-14.949,24.367-46.418,12.997-68.871
		c17.889-9.377,31.371-27.012,33.842-47.662c2.006-16.773-3.905-33.544-14.562-46.343
		C2035.183,1092.868,2039.314,1086.039,2041.264,1078.504z"/>
	<path style="fill:#FCF7C5;" d="M552.891,393.753c-8.328-14.5-22.641-28.182-40.517-27.174
		c-18.759,1.06-29.372,17.851-35.571,33.606c-6.404,16.286-8.11,33.359-7.348,50.52c-10.736-11.606-23.036-23.897-37.626-29.111
		c-15.552-5.552-35.05-1.814-44.047,13.156c-9.398,15.642-3.415,36.369,3.058,51.877c14.21,34.029,38.008,65.362,61.58,93.441
		c20.037,23.864,65.957,85.031,100.835,80.994c30.887-3.584,24.521-83.644,24.393-103.508
		C577.286,502.091,581.563,443.667,552.891,393.753z"/>
	<path style="fill:#FCF7C5;" d="M1731.891,337.852c8.33-14.498,22.641-28.18,40.52-27.171c18.759,1.06,29.372,17.851,35.571,33.606
		c6.401,16.286,8.107,33.359,7.345,50.521c10.736-11.607,23.035-23.898,37.626-29.109c15.552-5.554,35.05-1.814,44.047,13.153
		c9.398,15.642,3.415,36.369-3.058,51.878c-14.208,34.029-38.006,65.361-61.593,93.457
		c-31.127,37.074-111.99,141.119-121.965,35.104C1703.66,487.82,1694.583,402.801,1731.891,337.852z"/>
	<path style="fill:#141226;" d="M1514.081,710.17c-23.416-16.681-56.641-13.148-77.884,5.175
		c-6.185,5.336-5.883,16.604-0.002,22.005c7.984,7.332,14.613,3.799,21.658-0.195c12.173-6.901,25.604-8.366,38.198-1.717
		c7.956,4.202,18.374,5.942,23.613-3.979C1523.899,723.442,1521.18,715.227,1514.081,710.17z"/>
	<path style="fill:#141226;" d="M833.561,749.897c-12.015-9.813-27.29-15.231-42.929-13.536
		c-15.265,1.652-30.492,7.828-40.266,20.168c-2.663,3.363-4.559,6.529-4.559,11.003c0,3.815,1.698,8.374,4.559,11.001
		c5.621,5.162,16.609,6.814,22.004,0c5.526-6.976,13.797-11.142,22.761-11.327c10.824-0.223,17.638,9.254,27.425,9.254
		c3.82,0,8.379-1.696,11.004-4.559C838.792,766.204,840.292,755.398,833.561,749.897z"/>
	<path style="fill:#141226;" d="M1374.497,966.501c-7.242-2.081-18.008,2.547-19.139,10.867
		c-5.826,42.754-41.569,84.339-87.648,82.864c-45.25-1.449-60.182-48.003-66.588-87.794c30.802-7.507,62.058-25.371,60.782-60.09
		c-0.955-25.871-13.661-41.009-31.304-48.942c-39.022-17.548-99.604-10.578-134.582,14.172c-29.259,20.704-30.66,58.242-2.075,80.19
		c20.008,15.362,48.645,19.875,73.884,19.103c-3.528,35.548-25.065,68.743-60.713,79.875c-39.87,12.453-82.604-10.039-90.783-51.862
		c-3.84-19.637-33.839-11.324-30.006,8.274c11.35,58.045,74.01,90.652,129.063,73.597c31.728-9.828,54.712-31.379,68.443-58.243
		c2.414,5.577,5.074,11.057,8.341,16.299c15.827,25.411,40.612,43.875,71.011,46.297c60.267,4.808,114.35-47.965,122.181-105.468
		C1386.508,977.251,1383.337,969.038,1374.497,966.501z"/>
	<path style="fill:#F8F9FD;" d="M1229.763,881.803c-5.513-5.226-12.012-9.316-18.708-11.686c-6.901-2.44-17.083-3.06-23.092,2.027
		c-5.949,5.036-7.491,14.844-4.856,21.915c3.931,10.542,11.273,19.208,17.615,28.336c5.491,7.904,12.879,14.991,22.962,15.95
		c9.618,0.916,18.007-5.277,20.537-14.485C1248.443,908.479,1241.244,892.684,1229.763,881.803z"/>
	<path style="fill:#141226;" d="M827.767,864.291c-8.479-10.47-23.046-16.473-36.453-15.291
		c-21.335,1.878-37.695,19.56-41.974,39.953c-4.179,19.921,3.871,42.806,20.044,55.3c13.408,10.362,32.192,11.137,46.425,1.691
		c12.654-8.4,20.973-22.554,23.09-37.521C841.152,892.484,838.032,876.969,827.767,864.291z"/>
	<path style="fill:#141226;" d="M1562.603,864.291c-24.68-30.486-70.772-10.229-78.34,24.016
		c-4.408,19.944,3.702,43.388,19.957,55.946c13.41,10.362,32.195,11.137,46.428,1.691c12.653-8.4,20.973-22.554,23.089-37.521
		C1575.99,892.484,1572.868,876.969,1562.603,864.291z"/>
	<path style="fill:#ED7199;" d="M479.83,1434.458l-0.087,8.582c-0.038,3.897,1.842,7.566,5.031,9.806l7.019,4.936
		c8.03,5.644,6.101,18.049-3.263,20.988l-8.187,2.571c-3.72,1.167-6.626,4.089-7.773,7.814l-2.525,8.202
		c-2.886,9.382-15.28,11.378-20.97,3.379l-4.972-6.991c-2.26-3.176-5.939-5.036-9.836-4.977l-8.579,0.136
		c-9.815,0.152-15.544-11.016-9.695-18.9l5.111-6.891c2.324-3.13,2.958-7.204,1.696-10.894l-2.779-8.117
		c-3.178-9.287,5.673-18.187,14.978-15.062l8.133,2.735c3.697,1.242,7.766,0.585,10.883-1.755l6.863-5.152
		C468.727,1418.976,479.927,1424.643,479.83,1434.458z"/>
	<path style="fill:#FDF5B2;" d="M1780.341,1466.771l6.716,4.859c3.051,2.207,6.993,2.771,10.542,1.509l7.812-2.779
		c8.935-3.178,17.638,5.27,14.726,14.298l-2.545,7.889c-1.157,3.584-0.477,7.509,1.822,10.493l5.057,6.57
		c5.785,7.517,0.439,18.405-9.046,18.423l-8.292,0.018c-3.766,0.008-7.286,1.868-9.416,4.975l-4.687,6.84
		c-5.359,7.824-17.366,6.106-20.316-2.909l-2.578-7.881c-1.17-3.579-4.028-6.352-7.643-7.417l-7.951-2.345
		c-9.1-2.678-11.173-14.628-3.512-20.221l6.698-4.885c3.043-2.221,4.797-5.795,4.692-9.562l-0.228-8.286
		C1761.931,1466.877,1772.654,1461.212,1780.341,1466.771z"/>
	<path style="fill:#74CAE7;" d="M2018.669,1548.254l-3.412,19.96c-1.549,9.067,1.462,18.318,8.053,24.737l14.51,14.131
		c16.599,16.163,7.461,44.343-15.465,47.688l-20.039,2.924c-9.105,1.329-16.971,7.05-21.04,15.301l-8.951,18.164
		c-10.241,20.785-39.868,20.801-50.135,0.03l-8.972-18.153c-4.077-8.25-11.95-13.962-21.058-15.28l-20.039-2.899
		c-22.93-3.32-32.102-31.494-15.521-47.672l14.493-14.146c6.586-6.424,9.587-15.681,8.028-24.747l-3.435-19.954
		c-3.931-22.836,20.029-40.263,40.543-29.493l17.93,9.413c8.146,4.277,17.874,4.272,26.014-0.015l17.92-9.433
		C1998.594,1508.015,2022.574,1525.417,2018.669,1548.254z"/>
	<path style="fill:#74CAE7;" d="M370.754,1014.286l-1.478,8.641c-0.672,3.928,0.634,7.933,3.487,10.711l6.283,6.116
		c7.186,6.999,3.23,19.2-6.696,20.647l-8.677,1.267c-3.941,0.574-7.348,3.053-9.108,6.624l-3.877,7.866
		c-4.436,8.997-17.26,9.005-21.707,0.013l-3.884-7.861c-1.765-3.571-5.174-6.044-9.118-6.616l-8.677-1.255
		c-9.929-1.437-13.897-13.635-6.719-20.639l6.275-6.124c2.85-2.784,4.151-6.79,3.474-10.716l-1.486-8.641
		c-1.703-9.885,8.671-17.43,17.554-12.769l7.763,4.077c3.525,1.852,7.738,1.849,11.263-0.008l7.758-4.085
		C362.063,996.864,372.445,1004.396,370.754,1014.286z"/>
	<path style="fill:#C9DD9C;" d="M1920.849,775.283l-1.478,8.643c-0.669,3.925,0.634,7.93,3.489,10.711l6.28,6.116
		c7.188,6.996,3.23,19.198-6.696,20.647l-8.677,1.265c-3.941,0.575-7.348,3.053-9.108,6.627l-3.877,7.863
		c-4.433,9-17.26,9.005-21.707,0.013l-3.884-7.861c-1.765-3.569-5.175-6.044-9.115-6.613l-8.676-1.257
		c-9.929-1.436-13.9-13.633-6.722-20.639l6.275-6.124c2.853-2.781,4.151-6.788,3.476-10.714l-1.488-8.641
		c-1.701-9.888,8.672-17.433,17.553-12.769l7.764,4.074c3.528,1.852,7.74,1.849,11.262-0.005l7.758-4.084
		C1912.157,757.86,1922.539,765.396,1920.849,775.283z"/>
	<path style="fill:#74398D;" d="M2036.728,660.479l10.342,8.469c4.697,3.849,10.991,5.136,16.822,3.446l12.84-3.717
		c14.69-4.257,27.882,10.18,22.322,24.429l-4.856,12.453c-2.206,5.657-1.488,12.04,1.922,17.066l7.504,11.06
		c8.584,12.656-1.067,29.665-16.335,28.78l-13.346-0.772c-6.062-0.349-11.909,2.307-15.636,7.102l-8.199,10.555
		c-9.385,12.078-28.541,8.153-32.42-6.642l-3.389-12.928c-1.542-5.875-5.873-10.616-11.586-12.678l-12.571-4.539
		c-14.387-5.19-16.573-24.624-3.702-32.885l11.25-7.219c5.11-3.279,8.281-8.864,8.476-14.934l0.431-13.361
		C2007.088,658.875,2024.893,650.792,2036.728,660.479z"/>
	<path style="fill:#F087B5;" d="M243.107,761.847l4,16.781c1.816,7.625,7.268,13.867,14.58,16.691l16.091,6.219
		c18.413,7.114,20.673,32.254,3.825,42.539l-14.723,8.989c-6.691,4.085-10.942,11.199-11.371,19.026l-0.941,17.225
		c-1.078,19.708-24.285,29.627-39.273,16.784l-13.1-11.227c-5.952-5.101-14.033-6.945-21.609-4.934l-16.673,4.428
		c-19.077,5.064-35.681-13.943-28.098-32.167l6.629-15.927c3.01-7.237,2.268-15.49-1.986-22.073l-9.364-14.49
		c-10.711-16.578,2.235-38.245,21.909-36.664l17.197,1.383c7.812,0.626,15.434-2.63,20.38-8.71l10.885-13.382
		C213.924,737.029,238.53,742.647,243.107,761.847z"/>
	<path style="fill:#B3D598;" d="M340.427,1548.404l15.288,9.477c6.947,4.305,15.568,4.915,23.051,1.637l16.473-7.224
		c18.849-8.261,38.991,8.672,34.085,28.662l-4.289,17.466c-1.947,7.938,0.136,16.322,5.57,22.428l11.958,13.433
		c13.685,15.373,3.802,39.766-16.723,41.274l-17.938,1.318c-8.151,0.601-15.483,5.172-19.611,12.228l-9.082,15.526
		c-10.39,17.763-36.641,15.901-44.419-3.15l-6.798-16.656c-3.089-7.563-9.703-13.125-17.687-14.869l-17.574-3.838
		c-20.103-4.397-26.445-29.935-10.729-43.219l13.736-11.616c6.242-5.275,9.487-13.285,8.679-21.417l-1.778-17.897
		C300.605,1551.487,322.936,1537.564,340.427,1548.404z"/>
	<path style="fill:#ABD6BB;" d="M968.001,1026.321c-48.84-51.493-137.584-54.776-202.435-38.834
		c-67.255,16.535-140.777,97.431-82.237,163.68c44.845,50.749,137.021,58.65,199.566,46.143
		C959.886,1181.917,1037.819,1099.934,968.001,1026.321z"/>
	<path style="fill:#ABD6BB;" d="M1668.974,1026.321c-48.84-51.493-137.581-54.776-202.435-38.834
		c-67.252,16.535-140.777,97.431-82.235,163.68c44.842,50.749,137.019,58.65,199.566,46.143
		C1660.862,1181.917,1738.794,1099.934,1668.974,1026.321z"/>
	<path style="fill:#141226;" d="M522.194,981.781c36.087,21.614,72.173,43.229,108.26,64.846c8.723,5.223,16.658-8.4,7.956-13.61
		c-36.087-21.617-72.173-43.231-108.26-64.846C521.424,962.945,513.489,976.568,522.194,981.781z"/>
	<path style="fill:#141226;" d="M626.905,1093.076c0.049-4.687-3.671-7.368-7.881-7.881c-40.389-4.936-80.78-9.87-121.169-14.803
		c-4.261-0.521-7.843,3.995-7.881,7.881c-0.049,4.685,3.671,7.366,7.881,7.881c40.389,4.934,80.78,9.867,121.169,14.803
		C623.286,1101.475,626.867,1096.96,626.905,1093.076z"/>
	<path style="fill:#141226;" d="M631.215,1145.061c-34.321,16.958-68.884,33.423-103.675,49.393c-3.9,1.791-4.784,7.348-2.83,10.783
		c2.276,3.997,6.94,4.592,10.783,2.827c34.793-15.971,69.356-32.436,103.677-49.394
		C648.266,1154.176,640.287,1140.576,631.215,1145.061z"/>
	<path style="fill:#141226;" d="M1834.083,981.781c-36.087,21.614-72.173,43.229-108.26,64.846c-8.726,5.223-16.66-8.4-7.956-13.613
		c36.087-21.615,72.173-43.229,108.26-64.844C1834.85,962.945,1842.785,976.568,1834.083,981.781z"/>
	<path style="fill:#141226;" d="M1729.369,1093.073c-0.049-4.685,3.674-7.365,7.881-7.881c40.391-4.933,80.78-9.867,121.172-14.8
		c4.261-0.521,7.84,3.995,7.881,7.881c0.049,4.685-3.674,7.366-7.881,7.881c-40.391,4.934-80.78,9.867-121.172,14.8
		C1732.989,1101.475,1729.41,1096.96,1729.369,1093.073z"/>
	<path style="fill:#141226;" d="M1725.062,1145.061c34.321,16.958,68.881,33.423,103.675,49.393c3.9,1.791,4.782,7.348,2.827,10.783
		c-2.276,3.997-6.937,4.592-10.783,2.827c-34.793-15.971-69.354-32.436-103.675-49.394
		C1708.011,1154.176,1715.987,1140.576,1725.062,1145.061z"/>
</g>
</svg>
